<svg width="120" height="40" viewBox="0 0 120 40" xmlns="http://www.w3.org/2000/svg">
  <!-- UBS Keys Symbol -->
  <g transform="translate(4, 8)">
    <!-- Vertical key -->
    <rect x="10" y="2" width="2" height="20" fill="#000000"/>
    <circle cx="11" cy="4" r="2" fill="none" stroke="#000000" stroke-width="1.5"/>
    <rect x="12.5" y="8" width="2" height="1.5" fill="#000000"/>
    <rect x="12.5" y="10" width="2" height="1.5" fill="#000000"/>
    <rect x="12.5" y="12" width="2" height="1.5" fill="#000000"/>
    
    <!-- Horizontal key -->
    <rect x="2" y="10" width="20" height="2" fill="#000000"/>
    <circle cx="4" cy="11" r="2" fill="none" stroke="#000000" stroke-width="1.5"/>
    <rect x="8" y="8.5" width="1.5" height="2" fill="#000000"/>
    <rect x="10" y="8.5" width="1.5" height="2" fill="#000000"/>
    <rect x="12" y="8.5" width="1.5" height="2" fill="#000000"/>
    
    <!-- Decorative elements -->
    <circle cx="4" cy="11" r="1" fill="#000000"/>
    <circle cx="11" cy="4" r="1" fill="#000000"/>
    
    <!-- Additional key details -->
    <path d="M 18 2 Q 22 2 22 6 Q 22 10 18 10" fill="none" stroke="#000000" stroke-width="1.5"/>
    <path d="M 2 18 Q 2 22 6 22 Q 10 22 10 18" fill="none" stroke="#000000" stroke-width="1.5"/>
  </g>
  
  <!-- UBS Text -->
  <text x="35" y="28" font-family="Arial, sans-serif" font-size="18" font-weight="bold" fill="#E60028">
    UBS
  </text>
</svg>